<?xml version="1.0" standalone="no"?>
<!DOCTYPE svg PUBLIC "-//W3C//DTD SVG 20010904//EN"
 "http://www.w3.org/TR/2001/REC-SVG-20010904/DTD/svg10.dtd">
<svg version="1.0" xmlns="http://www.w3.org/2000/svg"
 width="500.000000pt" height="500.000000pt" viewBox="0 0 500.000000 500.000000"
 preserveAspectRatio="xMidYMid meet">
<metadata>
Created by potrace 1.14, written by Peter Selinger 2001-2017
</metadata>
<g transform="translate(0.000000,500.000000) scale(0.100000,-0.100000)"
fill="#000000" stroke="none">
<path d="M512 3208 c40 -35 124 -112 186 -172 62 -61 125 -118 140 -128 26
-17 20 -24 -17 -18 -36 5 -42 -57 -6 -66 24 -6 25 -7 20 -93 -12 -218 -15
-278 -21 -461 -3 -107 -8 -198 -10 -202 -2 -3 4 -9 13 -11 10 -3 1 -5 -20 -6
l-37 -1 2 -162 3 -163 1733 0 1732 -1 0 163 0 163 -1664 0 -1664 0 -2 103 c-1
128 -7 323 -15 492 -4 72 -7 144 -8 160 -2 58 18 36 51 -57 34 -93 99 -301
122 -391 7 -26 16 -49 20 -52 4 -2 -6 46 -22 108 -16 62 -31 121 -33 132 -3
11 -20 67 -39 125 -44 131 -59 197 -49 215 8 12 112 133 141 162 8 7 12 18 10
23 -6 17 -168 -124 -168 -146 0 -29 -32 -8 -125 79 -16 16 -97 82 -178 148
-156 125 -220 163 -95 57z"/>
<path d="M1497 2828 c-8 -5 -6 -8 5 -8 32 0 37 -34 37 -250 -1 -206 -2 -214
-22 -231 -21 -16 -19 -17 69 -17 l92 -1 -22 22 c-21 21 -22 29 -21 258 l0 236
-63 -1 c-35 -1 -69 -4 -75 -8z"/>
<path d="M3575 2831 c-2 -2 5 -11 16 -20 19 -15 19 -27 17 -241 l-3 -225 -37
-2 c-24 -1 -38 2 -39 10 0 7 -1 70 -2 140 -2 128 -3 129 -30 153 -39 34 -125
36 -187 6 -30 -14 -35 -23 -38 -55 -3 -32 0 -38 23 -47 30 -11 59 0 69 26 9
23 -1 51 -22 59 -14 5 -14 7 -2 15 22 14 57 12 73 -5 19 -18 23 -250 5 -272
-14 -17 -57 -17 -64 1 -18 47 -2 93 40 116 29 15 36 36 9 25 -10 -4 -37 -14
-60 -22 -100 -35 -127 -130 -48 -170 28 -14 86 -5 110 18 21 18 21 18 38 -1 9
-11 22 -20 29 -21 7 0 21 -2 30 -4 9 -2 28 3 42 10 14 8 26 10 26 5 0 -5 42
-9 93 -9 73 1 87 3 70 11 -15 7 -23 21 -24 37 -3 54 0 123 4 127 6 6 36 -36
72 -101 16 -30 23 -51 16 -53 -32 -11 -2 -20 64 -21 41 0 75 3 75 8 0 4 -9 16
-20 26 -11 10 -20 22 -20 26 0 4 -23 44 -51 89 l-51 82 39 40 c21 22 48 44 61
49 41 16 23 24 -53 24 -41 0 -75 -2 -75 -5 0 -3 10 -10 23 -15 33 -15 24 -53
-25 -97 -23 -21 -45 -38 -50 -38 -10 0 -9 -7 -11 175 l-2 150 -63 0 c-35 0
-65 -2 -67 -4z"/>
<path d="M1085 2780 c4 -6 10 -8 15 -5 21 13 28 -43 28 -228 l-1 -198 -26 -14
c-24 -13 -13 -14 109 -14 199 0 272 32 272 122 0 61 -55 113 -126 119 -14 1
-26 3 -26 4 0 1 19 12 43 23 42 20 77 64 77 96 0 35 -30 73 -70 89 -47 19
-306 24 -295 6z m235 -28 c36 -45 19 -159 -25 -176 -9 -3 -27 -6 -39 -6 -22 0
-23 3 -22 93 1 50 5 97 9 103 12 21 57 13 77 -14z m27 -227 c42 -48 28 -152
-24 -178 -26 -13 -69 -14 -82 -1 -3 3 -6 52 -7 110 l-1 104 46 -4 c34 -3 51
-11 68 -31z"/>
<path d="M2547 2778 c12 -6 24 -20 26 -32 3 -11 4 -106 4 -209 -2 -152 -5
-189 -17 -197 -8 -5 -18 -6 -22 -4 -4 3 -8 0 -8 -5 0 -7 41 -11 118 -11 79 0
112 3 102 10 -8 5 -23 10 -32 10 -26 0 -33 19 -33 98 l-1 72 40 1 c123 2 191
56 191 150 -1 40 -6 54 -30 79 -16 17 -45 35 -64 40 -51 14 -303 12 -274 -2z
m234 -20 c45 -69 27 -207 -29 -225 -65 -21 -67 -19 -68 98 0 137 4 149 52 144
20 -2 41 -9 45 -17z"/>
<path d="M476 2687 c86 -75 188 -179 172 -173 -13 4 -18 0 -18 -14 0 -11 5
-20 10 -20 10 0 9 -57 -4 -385 -1 -26 3 -30 27 -33 l28 -3 -6 168 c-4 92 -8
189 -9 216 -2 26 0 47 4 47 3 0 24 -54 46 -120 21 -67 40 -117 42 -112 1 4
-13 57 -33 117 -19 60 -35 116 -35 124 0 9 21 38 45 64 70 75 54 74 -27 -1
l-37 -35 -63 54 c-35 30 -65 56 -68 59 -10 11 -85 67 -100 75 -8 4 4 -8 26
-28z"/>
<path d="M2205 2670 c-75 -16 -114 -67 -122 -159 -12 -134 65 -219 180 -197
34 6 75 42 96 84 15 28 8 28 -24 -2 -72 -67 -155 -11 -155 105 l0 26 86 -1
c47 -1 90 2 96 5 15 9 -1 72 -25 102 -25 30 -86 47 -132 37z m69 -61 c9 -28
13 -55 10 -60 -9 -15 -104 -11 -104 5 0 18 21 78 33 94 22 28 46 13 61 -39z"/>
<path d="M3043 2664 c-76 -26 -117 -113 -101 -218 8 -59 32 -95 79 -118 65
-34 137 -17 178 41 30 42 26 59 -6 29 -71 -67 -153 -18 -153 89 l0 40 90 -1
c50 -1 90 1 91 4 0 3 2 12 4 21 1 9 -5 34 -15 56 -26 59 -93 82 -167 57z m84
-34 c7 -14 13 -40 13 -57 0 -33 0 -33 -50 -33 -56 0 -60 8 -38 71 19 56 52 64
75 19z"/>
<path d="M1685 2661 c-2 -2 5 -11 15 -20 17 -14 20 -31 21 -141 1 -68 6 -134
11 -146 23 -49 118 -57 164 -13 24 22 24 22 24 2 0 -27 6 -29 82 -25 60 4 61
4 40 21 -22 16 -23 23 -23 173 l1 157 -70 -2 c-38 -1 -70 -4 -70 -5 0 -2 9
-11 21 -21 19 -15 20 -27 20 -135 0 -113 -1 -120 -24 -144 -19 -19 -31 -23
-51 -18 -29 7 -28 -5 -28 198 l0 127 -65 -2 c-35 -1 -66 -4 -68 -6z"/>
<path d="M766 2227 c3 -10 9 -15 12 -12 3 3 0 11 -7 18 -10 9 -11 8 -5 -6z"/>
</g>
</svg>
